# xmcd
#
# Track frame offsets:
#	150
#	12822
#	24480
#	36056
#	48747
#	60199
#	72928
#	85042
#	93705
#	106307
#	118347
#	130112
#	138596
#	151365
#	164262
#	175580
#	190631
#	203613
#
# Disc length: 2871 seconds
#
# Revision: 0
# Processed by: cddbd v1.5.2PL0 Copyright (c) Steve Scherf et al.
# Submitted via: audiograbber 1.83.01
#
DISCID=e70b3512
DTITLE=The Supremes - Hits in the name of Love
DYEAR=2008
DGENRE=Soul
TTITLE0=Where did our love go
TTITLE1=Baby Love
TTITLE2=Some See about me
TTITLE3=Stop! In the Name of Love
TTITLE4=Back in my arms again
TTITLE5=Nothing But heartaches
TTITLE6=I Hear A SYmphony
TTITLE7=My world is empty without you
TTITLE8=You can't hurry Love
TTITLE9=You Keep me Hangin' on
TTITLE10=Love is here and now you're gone
TTITLE11=The Happening
TTITLE12=Reflections
TTITLE13=In and Out of Love
TTITLE14=Love child
TTITLE15=Someday we'll Be together
TTITLE16=Stop in the name of Love (Reprise)
TTITLE17=When the lovelight starts shining through eyes
EXTD=
EXTT0=
EXTT1=
EXTT2=
EXTT3=
EXTT4=
EXTT5=
EXTT6=
EXTT7=
EXTT8=
EXTT9=
EXTT10=
EXTT11=
EXTT12=
EXTT13=
EXTT14=
EXTT15=
EXTT16=
EXTT17=
PLAYORDER=
